<?xml version="1.0" encoding="UTF-8"?>
<svg version="1.1" xmlns="http://www.w3.org/2000/svg" width="64" height="64">
<path d="M0 0 C2.625 -0.1875 2.625 -0.1875 5 0 C4.41632611 6.30367803 2.95928381 11.98660063 1 18 C2.11375 18.144375 3.2275 18.28875 4.375 18.4375 C8 19 8 19 10 20 C9.60667234 25.80158296 7.19784887 29.01291065 3.75 33.4375 C2.78606103 34.70672961 1.82251745 35.9762596 0.859375 37.24609375 C0.15071289 38.17010986 0.15071289 38.17010986 -0.57226562 39.11279297 C-2.77937148 42.03018836 -4.88804002 45.01319529 -7 48 C-8.65 47.67 -10.3 47.34 -12 47 C-10.68 41.06 -9.36 35.12 -8 29 C-10.64 28.01 -13.28 27.02 -16 26 C-15.44776225 22.15830952 -14.4368725 19.78592692 -12.12890625 16.6796875 C-11.55462891 15.89722656 -10.98035156 15.11476563 -10.38867188 14.30859375 C-9.78603516 13.50550781 -9.18339844 12.70242187 -8.5625 11.875 C-7.37606899 10.26840128 -6.18986174 8.66163727 -5.00390625 7.0546875 C-4.47611572 6.34812012 -3.9483252 5.64155273 -3.40454102 4.91357422 C-2.22550546 3.30723305 -1.10529589 1.65794384 0 0 Z " fill="#ED3732" transform="translate(35,8)"/>
</svg>
