<svg xmlns="http://www.w3.org/2000/svg" xmlns:xlink="http://www.w3.org/1999/xlink" width="19px" height="19px" viewBox="0 0 19 19" version="1.1">
<g id="surface1">
<path style=" stroke:none;fill-rule:nonzero;fill:#ffffff;fill-opacity:1;" d="M 10.238281 1.324219 C 10.273438 1.347656 10.304688 1.367188 10.335938 1.390625 C 10.441406 1.457031 10.546875 1.527344 10.648438 1.597656 C 10.722656 1.648438 10.796875 1.695312 10.871094 1.746094 C 11.09375 1.890625 11.316406 2.039062 11.539062 2.1875 C 11.574219 2.210938 11.605469 2.234375 11.640625 2.253906 C 11.90625 2.433594 12.175781 2.613281 12.441406 2.789062 C 12.859375 3.066406 13.273438 3.34375 13.691406 3.617188 C 14.335938 4.042969 14.980469 4.46875 15.621094 4.902344 C 15.964844 5.136719 16.308594 5.367188 16.65625 5.597656 C 16.730469 5.644531 16.800781 5.691406 16.875 5.738281 C 16.976562 5.808594 17.082031 5.875 17.1875 5.945312 C 17.28125 6.003906 17.378906 6.066406 17.472656 6.132812 C 17.5 6.148438 17.527344 6.167969 17.558594 6.183594 C 17.746094 6.3125 17.910156 6.449219 17.984375 6.671875 C 18.003906 6.777344 18.003906 6.875 18.003906 6.980469 C 18.003906 7.027344 18.003906 7.074219 18.003906 7.121094 C 18.003906 7.171875 18.003906 7.222656 18.003906 7.273438 C 18.003906 7.328125 18.003906 7.382812 18.003906 7.4375 C 18.003906 7.585938 18.003906 7.730469 18.003906 7.878906 C 18.003906 7.96875 18.003906 8.0625 18.007812 8.152344 C 18.007812 8.441406 18.007812 8.730469 18.007812 9.015625 C 18.007812 9.347656 18.007812 9.679688 18.007812 10.011719 C 18.007812 10.269531 18.011719 10.523438 18.011719 10.78125 C 18.011719 10.933594 18.011719 11.085938 18.011719 11.238281 C 18.011719 11.382812 18.011719 11.527344 18.011719 11.671875 C 18.011719 11.726562 18.011719 11.777344 18.011719 11.832031 C 18.011719 11.902344 18.011719 11.976562 18.011719 12.046875 C 18.011719 12.085938 18.011719 12.128906 18.011719 12.167969 C 17.984375 12.398438 17.871094 12.542969 17.703125 12.691406 C 17.601562 12.765625 17.496094 12.835938 17.390625 12.90625 C 17.359375 12.929688 17.328125 12.949219 17.296875 12.96875 C 17.195312 13.039062 17.09375 13.105469 16.992188 13.171875 C 16.921875 13.222656 16.851562 13.269531 16.777344 13.320312 C 16.25 13.671875 15.71875 14.023438 15.1875 14.371094 C 14.648438 14.726562 14.109375 15.085938 13.574219 15.449219 C 13.035156 15.816406 12.492188 16.175781 11.945312 16.535156 C 11.574219 16.777344 11.207031 17.019531 10.84375 17.265625 C 10.8125 17.289062 10.78125 17.3125 10.746094 17.332031 C 10.597656 17.4375 10.445312 17.539062 10.296875 17.640625 C 10.242188 17.679688 10.1875 17.714844 10.136719 17.75 C 10.113281 17.769531 10.089844 17.785156 10.0625 17.800781 C 9.84375 17.949219 9.65625 18.023438 9.390625 17.996094 C 9.128906 17.917969 8.910156 17.792969 8.691406 17.636719 C 8.660156 17.617188 8.628906 17.597656 8.597656 17.574219 C 8.53125 17.53125 8.464844 17.484375 8.402344 17.441406 C 8.222656 17.316406 8.042969 17.195312 7.867188 17.074219 C 7.828125 17.050781 7.792969 17.023438 7.753906 17 C 7.375 16.738281 6.988281 16.488281 6.605469 16.234375 C 6.03125 15.859375 5.460938 15.476562 4.890625 15.09375 C 4.417969 14.769531 3.941406 14.453125 3.460938 14.136719 C 3.160156 13.941406 2.859375 13.742188 2.5625 13.542969 C 2.527344 13.523438 2.496094 13.503906 2.464844 13.480469 C 2.285156 13.363281 2.105469 13.242188 1.925781 13.121094 C 1.871094 13.085938 1.816406 13.050781 1.761719 13.015625 C 1.113281 12.585938 1.113281 12.585938 1 12.246094 C 0.992188 12.136719 0.992188 12.136719 0.992188 12.015625 C 0.992188 11.972656 0.992188 11.925781 0.992188 11.878906 C 0.992188 11.828125 0.992188 11.777344 0.992188 11.726562 C 0.992188 11.671875 0.992188 11.617188 0.992188 11.566406 C 0.988281 11.421875 0.988281 11.273438 0.988281 11.128906 C 0.988281 11.039062 0.988281 10.949219 0.988281 10.855469 C 0.988281 10.539062 0.988281 10.222656 0.988281 9.902344 C 0.988281 9.609375 0.988281 9.3125 0.984375 9.015625 C 0.984375 8.761719 0.984375 8.507812 0.984375 8.253906 C 0.984375 8.105469 0.984375 7.953125 0.984375 7.800781 C 0.984375 7.65625 0.984375 7.515625 0.984375 7.371094 C 0.984375 7.320312 0.984375 7.269531 0.984375 7.214844 C 0.980469 6.882812 0.988281 6.59375 1.226562 6.339844 C 1.265625 6.3125 1.265625 6.3125 1.304688 6.28125 C 1.335938 6.261719 1.363281 6.242188 1.394531 6.21875 C 1.425781 6.199219 1.453125 6.179688 1.484375 6.160156 C 1.511719 6.140625 1.539062 6.121094 1.566406 6.105469 C 1.648438 6.046875 1.734375 5.992188 1.816406 5.9375 C 1.847656 5.917969 1.882812 5.894531 1.914062 5.875 C 1.980469 5.832031 2.046875 5.785156 2.117188 5.742188 C 2.296875 5.621094 2.480469 5.503906 2.664062 5.382812 C 2.699219 5.359375 2.738281 5.335938 2.777344 5.308594 C 3.171875 5.046875 3.566406 4.78125 3.960938 4.515625 C 4.394531 4.21875 4.835938 3.925781 5.28125 3.644531 C 5.691406 3.382812 6.09375 3.109375 6.496094 2.835938 C 7.203125 2.359375 7.910156 1.890625 8.625 1.421875 C 8.652344 1.40625 8.679688 1.386719 8.707031 1.367188 C 8.734375 1.351562 8.761719 1.332031 8.789062 1.316406 C 8.84375 1.277344 8.902344 1.238281 8.957031 1.199219 C 8.988281 1.179688 9.015625 1.160156 9.046875 1.140625 C 9.074219 1.121094 9.101562 1.101562 9.128906 1.082031 C 9.527344 0.847656 9.90625 1.101562 10.238281 1.324219 Z M 10.242188 3.15625 C 10.234375 3.585938 10.226562 4.015625 10.222656 4.445312 C 10.21875 4.644531 10.214844 4.84375 10.210938 5.042969 C 10.207031 5.238281 10.203125 5.429688 10.203125 5.625 C 10.203125 5.695312 10.203125 5.769531 10.199219 5.84375 C 10.175781 6.246094 10.175781 6.246094 10.324219 6.597656 C 10.429688 6.675781 10.53125 6.734375 10.648438 6.789062 C 10.710938 6.832031 10.769531 6.871094 10.832031 6.914062 C 10.890625 6.953125 10.949219 6.992188 11.011719 7.03125 C 11.058594 7.0625 11.058594 7.0625 11.109375 7.097656 C 11.214844 7.164062 11.320312 7.234375 11.425781 7.304688 C 12.257812 7.847656 12.257812 7.847656 12.613281 8.097656 C 12.640625 8.113281 12.664062 8.128906 12.6875 8.148438 C 12.800781 8.222656 12.910156 8.300781 13.019531 8.378906 C 13.058594 8.40625 13.09375 8.433594 13.132812 8.460938 C 13.167969 8.480469 13.199219 8.503906 13.230469 8.527344 C 13.34375 8.582031 13.386719 8.570312 13.507812 8.535156 C 13.585938 8.496094 13.585938 8.496094 13.664062 8.441406 C 13.691406 8.421875 13.722656 8.402344 13.753906 8.378906 C 13.785156 8.359375 13.816406 8.335938 13.847656 8.3125 C 13.882812 8.292969 13.914062 8.269531 13.949219 8.246094 C 14.054688 8.171875 14.160156 8.101562 14.269531 8.027344 C 14.371094 7.957031 14.476562 7.886719 14.582031 7.816406 C 14.648438 7.765625 14.71875 7.71875 14.789062 7.671875 C 14.96875 7.550781 15.148438 7.429688 15.328125 7.308594 C 15.367188 7.285156 15.402344 7.261719 15.4375 7.238281 C 15.507812 7.191406 15.578125 7.148438 15.648438 7.101562 C 15.695312 7.070312 15.695312 7.070312 15.742188 7.039062 C 15.769531 7.023438 15.796875 7.003906 15.824219 6.988281 C 15.84375 6.972656 15.863281 6.957031 15.882812 6.9375 C 15.882812 6.914062 15.882812 6.890625 15.882812 6.867188 C 15.792969 6.800781 15.707031 6.746094 15.613281 6.6875 C 15.554688 6.648438 15.496094 6.613281 15.4375 6.574219 C 15.410156 6.554688 15.378906 6.535156 15.347656 6.515625 C 15.191406 6.417969 15.039062 6.320312 14.890625 6.21875 C 14.859375 6.199219 14.828125 6.179688 14.792969 6.15625 C 14.695312 6.089844 14.59375 6.027344 14.496094 5.960938 C 14.460938 5.9375 14.425781 5.914062 14.390625 5.890625 C 13.863281 5.542969 13.34375 5.195312 12.820312 4.84375 C 12.253906 4.460938 11.6875 4.082031 11.117188 3.703125 C 11.082031 3.679688 11.046875 3.65625 11.007812 3.632812 C 10.90625 3.566406 10.808594 3.5 10.707031 3.433594 C 10.675781 3.414062 10.644531 3.394531 10.617188 3.375 C 10.574219 3.347656 10.574219 3.347656 10.53125 3.320312 C 10.507812 3.304688 10.484375 3.289062 10.460938 3.269531 C 10.390625 3.226562 10.316406 3.191406 10.242188 3.15625 Z M 8.59375 3.234375 C 8.5625 3.253906 8.535156 3.273438 8.507812 3.289062 C 8.460938 3.320312 8.460938 3.320312 8.414062 3.351562 C 8.382812 3.371094 8.351562 3.394531 8.320312 3.414062 C 8.214844 3.484375 8.109375 3.554688 8 3.625 C 7.964844 3.648438 7.929688 3.671875 7.890625 3.699219 C 7.320312 4.074219 6.757812 4.453125 6.191406 4.835938 C 5.605469 5.230469 5.015625 5.625 4.421875 6.011719 C 4.265625 6.113281 4.109375 6.21875 3.953125 6.320312 C 3.886719 6.363281 3.824219 6.40625 3.757812 6.449219 C 3.65625 6.515625 3.558594 6.582031 3.460938 6.648438 C 3.429688 6.667969 3.398438 6.6875 3.367188 6.710938 C 3.339844 6.726562 3.308594 6.746094 3.28125 6.765625 C 3.257812 6.78125 3.230469 6.800781 3.207031 6.816406 C 3.191406 6.832031 3.171875 6.847656 3.15625 6.867188 C 3.15625 6.902344 3.15625 6.9375 3.15625 6.976562 C 3.210938 7.03125 3.210938 7.03125 3.292969 7.078125 C 3.320312 7.097656 3.351562 7.121094 3.382812 7.140625 C 3.417969 7.160156 3.449219 7.183594 3.484375 7.203125 C 3.519531 7.226562 3.554688 7.25 3.589844 7.273438 C 3.699219 7.34375 3.8125 7.417969 3.921875 7.488281 C 4.03125 7.558594 4.136719 7.628906 4.246094 7.699219 C 4.316406 7.746094 4.390625 7.792969 4.460938 7.839844 C 4.644531 7.960938 4.828125 8.082031 5.011719 8.207031 C 5.0625 8.242188 5.0625 8.242188 5.117188 8.277344 C 5.183594 8.324219 5.253906 8.371094 5.320312 8.417969 C 5.367188 8.449219 5.367188 8.449219 5.410156 8.480469 C 5.4375 8.5 5.464844 8.519531 5.492188 8.539062 C 5.5625 8.578125 5.5625 8.578125 5.640625 8.566406 C 5.722656 8.53125 5.789062 8.496094 5.859375 8.445312 C 5.886719 8.429688 5.917969 8.410156 5.945312 8.390625 C 5.976562 8.371094 6.007812 8.351562 6.039062 8.328125 C 6.070312 8.308594 6.101562 8.285156 6.136719 8.265625 C 6.242188 8.195312 6.347656 8.125 6.453125 8.054688 C 6.527344 8.003906 6.601562 7.957031 6.675781 7.90625 C 7.164062 7.582031 7.648438 7.257812 8.132812 6.929688 C 8.164062 6.910156 8.195312 6.890625 8.222656 6.871094 C 8.308594 6.8125 8.390625 6.757812 8.472656 6.699219 C 8.5 6.683594 8.523438 6.667969 8.550781 6.648438 C 8.660156 6.578125 8.660156 6.578125 8.757812 6.492188 C 8.761719 6.390625 8.761719 6.289062 8.761719 6.183594 C 8.761719 6.132812 8.761719 6.132812 8.761719 6.085938 C 8.761719 5.976562 8.761719 5.867188 8.761719 5.761719 C 8.761719 5.683594 8.761719 5.609375 8.761719 5.535156 C 8.761719 5.339844 8.761719 5.140625 8.761719 4.945312 C 8.761719 4.742188 8.761719 4.539062 8.757812 4.339844 C 8.757812 3.945312 8.757812 3.550781 8.757812 3.15625 C 8.691406 3.15625 8.644531 3.199219 8.59375 3.234375 Z M 9.320312 7.882812 C 9.292969 7.902344 9.265625 7.921875 9.234375 7.941406 C 9.203125 7.964844 9.171875 7.984375 9.136719 8.007812 C 9.105469 8.03125 9.070312 8.050781 9.039062 8.074219 C 8.929688 8.148438 8.824219 8.222656 8.714844 8.292969 C 8.570312 8.394531 8.425781 8.492188 8.277344 8.589844 C 8.242188 8.613281 8.207031 8.640625 8.171875 8.664062 C 7.96875 8.800781 7.765625 8.9375 7.5625 9.070312 C 7.542969 9.085938 7.519531 9.097656 7.5 9.113281 C 7.402344 9.175781 7.308594 9.238281 7.210938 9.300781 C 7.179688 9.320312 7.148438 9.34375 7.117188 9.363281 C 7.089844 9.382812 7.0625 9.398438 7.03125 9.417969 C 7.015625 9.433594 6.996094 9.449219 6.976562 9.460938 C 6.976562 9.488281 6.976562 9.511719 6.976562 9.539062 C 7.035156 9.585938 7.035156 9.585938 7.113281 9.636719 C 7.144531 9.65625 7.171875 9.675781 7.203125 9.695312 C 7.238281 9.714844 7.269531 9.738281 7.304688 9.761719 C 7.355469 9.792969 7.355469 9.792969 7.410156 9.828125 C 7.519531 9.902344 7.628906 9.972656 7.742188 10.046875 C 7.890625 10.144531 8.042969 10.242188 8.191406 10.339844 C 8.230469 10.363281 8.265625 10.386719 8.304688 10.410156 C 8.5 10.542969 8.699219 10.671875 8.894531 10.808594 C 8.929688 10.835938 8.96875 10.863281 9.007812 10.890625 C 9.074219 10.9375 9.136719 10.984375 9.203125 11.03125 C 9.230469 11.050781 9.257812 11.070312 9.285156 11.089844 C 9.308594 11.105469 9.332031 11.121094 9.355469 11.140625 C 9.453125 11.183594 9.507812 11.160156 9.609375 11.132812 C 9.6875 11.09375 9.6875 11.09375 9.761719 11.042969 C 9.792969 11.023438 9.820312 11.003906 9.847656 10.984375 C 9.878906 10.964844 9.910156 10.941406 9.941406 10.921875 C 9.988281 10.890625 9.988281 10.890625 10.039062 10.855469 C 10.144531 10.785156 10.246094 10.714844 10.351562 10.644531 C 10.421875 10.597656 10.492188 10.550781 10.5625 10.503906 C 10.703125 10.410156 10.84375 10.316406 10.980469 10.222656 C 11.117188 10.128906 11.253906 10.039062 11.390625 9.945312 C 11.484375 9.882812 11.582031 9.820312 11.675781 9.757812 C 11.707031 9.734375 11.742188 9.714844 11.773438 9.691406 C 11.804688 9.671875 11.832031 9.652344 11.863281 9.632812 C 11.898438 9.609375 11.898438 9.609375 11.9375 9.585938 C 11.953125 9.570312 11.96875 9.554688 11.984375 9.539062 C 11.984375 9.5 11.984375 9.464844 11.984375 9.425781 C 11.929688 9.371094 11.929688 9.371094 11.847656 9.324219 C 11.820312 9.304688 11.789062 9.285156 11.757812 9.261719 C 11.726562 9.242188 11.691406 9.222656 11.65625 9.199219 C 11.625 9.175781 11.589844 9.15625 11.554688 9.132812 C 11.445312 9.058594 11.332031 8.988281 11.222656 8.914062 C 11.109375 8.84375 10.996094 8.769531 10.882812 8.695312 C 10.808594 8.648438 10.734375 8.597656 10.660156 8.550781 C 10.351562 8.351562 10.050781 8.144531 9.75 7.9375 C 9.707031 7.90625 9.707031 7.90625 9.664062 7.875 C 9.640625 7.859375 9.617188 7.84375 9.59375 7.828125 C 9.480469 7.757812 9.421875 7.8125 9.320312 7.882812 Z M 2.484375 8.3125 C 2.484375 9.085938 2.484375 9.855469 2.484375 10.648438 C 2.625 10.59375 2.71875 10.550781 2.835938 10.472656 C 2.867188 10.453125 2.898438 10.429688 2.929688 10.410156 C 2.964844 10.386719 2.996094 10.363281 3.03125 10.339844 C 3.066406 10.320312 3.097656 10.296875 3.136719 10.273438 C 3.246094 10.199219 3.355469 10.125 3.460938 10.050781 C 3.535156 10.003906 3.609375 9.953125 3.683594 9.902344 C 3.867188 9.78125 4.050781 9.660156 4.230469 9.539062 C 4.1875 9.40625 4.160156 9.394531 4.050781 9.320312 C 4.019531 9.300781 3.988281 9.28125 3.957031 9.261719 C 3.925781 9.238281 3.890625 9.21875 3.855469 9.195312 C 3.785156 9.148438 3.714844 9.105469 3.644531 9.058594 C 3.609375 9.03125 3.570312 9.007812 3.53125 8.984375 C 3.410156 8.902344 3.289062 8.820312 3.164062 8.738281 C 3.105469 8.699219 3.105469 8.699219 3.042969 8.65625 C 2.964844 8.605469 2.882812 8.550781 2.804688 8.496094 C 2.769531 8.472656 2.730469 8.449219 2.695312 8.425781 C 2.664062 8.402344 2.628906 8.382812 2.597656 8.359375 C 2.53125 8.308594 2.53125 8.308594 2.484375 8.3125 Z M 16.25 8.460938 C 16.226562 8.476562 16.203125 8.492188 16.179688 8.507812 C 16.105469 8.558594 16.03125 8.609375 15.953125 8.65625 C 15.929688 8.675781 15.902344 8.691406 15.878906 8.710938 C 15.726562 8.808594 15.578125 8.910156 15.429688 9.011719 C 15.371094 9.050781 15.3125 9.089844 15.253906 9.128906 C 15.167969 9.1875 15.082031 9.242188 14.996094 9.300781 C 14.972656 9.316406 14.949219 9.332031 14.925781 9.347656 C 14.871094 9.386719 14.820312 9.421875 14.769531 9.460938 C 14.769531 9.488281 14.769531 9.511719 14.769531 9.539062 C 14.832031 9.589844 14.832031 9.589844 14.917969 9.644531 C 14.949219 9.664062 14.980469 9.6875 15.015625 9.707031 C 15.050781 9.730469 15.085938 9.753906 15.121094 9.777344 C 15.160156 9.800781 15.195312 9.824219 15.230469 9.851562 C 15.308594 9.902344 15.382812 9.949219 15.460938 10 C 15.578125 10.078125 15.695312 10.152344 15.8125 10.230469 C 15.886719 10.28125 15.960938 10.328125 16.035156 10.375 C 16.070312 10.398438 16.105469 10.421875 16.140625 10.445312 C 16.191406 10.480469 16.191406 10.480469 16.238281 10.511719 C 16.269531 10.53125 16.296875 10.550781 16.328125 10.570312 C 16.40625 10.617188 16.40625 10.617188 16.515625 10.648438 C 16.515625 9.878906 16.515625 9.105469 16.515625 8.3125 C 16.425781 8.3125 16.324219 8.410156 16.25 8.460938 Z M 5.300781 10.578125 C 5.042969 10.761719 4.785156 10.9375 4.523438 11.109375 C 4.488281 11.132812 4.453125 11.15625 4.417969 11.179688 C 4.269531 11.273438 4.125 11.367188 3.980469 11.460938 C 3.871094 11.53125 3.765625 11.605469 3.65625 11.675781 C 3.625 11.695312 3.589844 11.714844 3.554688 11.738281 C 3.390625 11.847656 3.25 11.953125 3.117188 12.097656 C 3.917969 12.640625 4.71875 13.179688 5.527344 13.710938 C 6.183594 14.140625 6.832031 14.578125 7.480469 15.015625 C 7.777344 15.21875 8.078125 15.417969 8.375 15.617188 C 8.410156 15.640625 8.441406 15.664062 8.476562 15.6875 C 8.523438 15.71875 8.523438 15.71875 8.574219 15.75 C 8.601562 15.769531 8.628906 15.785156 8.65625 15.804688 C 8.714844 15.847656 8.714844 15.847656 8.757812 15.84375 C 9.03125 13.972656 9.03125 13.972656 8.621094 12.21875 C 8.320312 11.875 7.890625 11.695312 7.472656 11.535156 C 7.066406 11.378906 6.734375 11.144531 6.382812 10.894531 C 6.230469 10.785156 6.074219 10.679688 5.914062 10.570312 C 5.875 10.542969 5.875 10.542969 5.832031 10.515625 C 5.582031 10.34375 5.527344 10.410156 5.300781 10.578125 Z M 13.230469 10.472656 C 13.203125 10.492188 13.175781 10.511719 13.148438 10.527344 C 13.101562 10.558594 13.101562 10.558594 13.054688 10.589844 C 13.023438 10.613281 12.992188 10.632812 12.960938 10.65625 C 12.785156 10.773438 12.609375 10.894531 12.4375 11.019531 C 12.074219 11.273438 11.738281 11.488281 11.320312 11.644531 C 10.921875 11.800781 10.53125 11.960938 10.296875 12.335938 C 9.878906 13.332031 10.152344 14.796875 10.242188 15.84375 C 10.492188 15.6875 10.742188 15.527344 10.992188 15.363281 C 11.023438 15.34375 11.054688 15.320312 11.085938 15.300781 C 11.1875 15.234375 11.289062 15.167969 11.390625 15.097656 C 11.429688 15.074219 11.464844 15.050781 11.5 15.027344 C 12.0625 14.65625 12.621094 14.28125 13.179688 13.90625 C 13.777344 13.5 14.375 13.101562 14.980469 12.707031 C 15.4375 12.410156 15.4375 12.410156 15.882812 12.097656 C 15.707031 11.898438 15.484375 11.765625 15.261719 11.621094 C 15.175781 11.5625 15.085938 11.503906 14.996094 11.441406 C 14.972656 11.425781 14.949219 11.410156 14.921875 11.394531 C 14.730469 11.269531 14.542969 11.140625 14.351562 11.011719 C 14.324219 10.992188 14.292969 10.972656 14.265625 10.953125 C 14.148438 10.875 14.035156 10.796875 13.921875 10.71875 C 13.839844 10.664062 13.761719 10.609375 13.679688 10.554688 C 13.65625 10.539062 13.632812 10.519531 13.609375 10.503906 C 13.441406 10.390625 13.394531 10.359375 13.230469 10.472656 Z M 13.230469 10.472656 "/>
</g>
</svg>